<svg viewBox="0 0 1024 1024" xmlns="http://www.w3.org/2000/svg">
  <path opacity=".8" d="M515.072 994.304c-267.264 0-484.864-217.6-484.864-484.864s217.6-484.864 484.864-484.864c28.672 0 57.344 2.56 85.504 7.68 22.528 4.096 37.376 25.088 33.28 47.616-4.096 22.528-25.088 36.864-47.616 33.28a413.12 413.12 0 00-71.168-6.144c-222.208 0-402.944 180.736-402.944 402.944s180.736 402.944 402.944 402.944S918.016 732.16 918.016 509.952c0-132.608-65.024-256.512-174.08-331.776-18.432-12.8-23.04-38.4-10.24-56.832 12.8-18.432 38.4-23.04 56.832-10.24 131.072 90.624 209.408 240.128 209.408 399.36.512 266.24-217.088 483.84-484.864 483.84zm0-296.448c-122.88 0-234.496-62.464-299.008-166.912a40.704 40.704 0 010-43.008c64.512-104.448 176.128-166.912 299.008-166.912s234.496 62.464 299.008 166.912c8.192 13.312 8.192 29.696 0 43.008-64.512 104.448-176.128 166.912-299.008 166.912zM301.056 509.44c50.688 67.072 129.024 106.496 214.528 106.496s163.84-39.424 214.528-106.496c-50.688-67.072-129.024-106.496-214.528-106.496s-163.84 39.424-214.528 106.496zm173.056 0a40.96 40.96 0 1081.92 0 40.96 40.96 0 10-81.92 0z" />
</svg>