<svg viewBox="0 0 1024 1024" xmlns="http://www.w3.org/2000/svg">
  <path opacity=".8" d="M426.496 707.072c-10.24 0-20.992-4.096-29.184-11.776l-138.24-138.24c-15.872-15.872-15.872-41.984 0-57.856s41.984-15.872 57.856 0l109.056 109.056L706.56 328.192c15.872-15.872 41.984-15.872 57.856 0s15.872 41.984 0 57.856L455.68 694.784c-8.192 8.192-18.944 12.288-29.184 12.288zm413.696 276.48H182.784c-78.848 0-143.36-64.512-143.36-143.36V182.784c0-78.848 64.512-143.36 143.36-143.36h657.408c36.352 0 71.168 13.824 97.792 38.4 29.184 27.136 45.568 65.024 45.568 104.96v449.024c0 22.528-18.432 40.96-40.96 40.96s-40.96-18.432-40.96-40.96V182.784c0-17.408-7.168-33.28-19.456-45.056-11.264-10.752-26.112-16.384-41.984-16.384H182.784c-33.792 0-61.44 27.648-61.44 61.44v657.408c0 33.792 27.648 61.44 61.44 61.44h657.408c33.792 0 61.44-27.648 61.44-61.44 0-22.528 18.432-40.96 40.96-40.96s40.96 18.432 40.96 40.96c0 79.36-64 143.36-143.36 143.36z" />
</svg>