<svg xmlns="http://www.w3.org/2000/svg" viewBox="0 0 63.31 21.01">
  <path opacity=".8" d="M24.67 5.86c1.53 3.29 3.78 5.78 6.75 7.47l-2.1 2.18c-2.67-1.79-4.65-4.39-5.94-7.81-1.26 3.15-3.45 5.71-6.58 7.7l-.99-1.15c2.93-2.19 4.79-4.98 5.58-8.38h-4.96l-.11-1.33h5.34c.2-1.18.36-2.65.48-4.4h2.85a36.09 36.09 0 01-.67 4.4h6.42l-.16 1.33h-5.92zm-1.98 5.02c1.43 1.51 2.24 2.38 2.43 2.61l-2 1.42-1.79-3.15 1.36-.88zM37.74 9.39c-1.19 1.76-2.4 3.44-3.62 5.04l-2-1.76c1.28-1.35 2.63-2.82 4.05-4.38l1.57 1.1zm3.49-1.6v5.02c0 1.62-.9 2.43-2.69 2.43h-2.11l-.14-1.14h2.18V7.79h-5.25l.7-6.27h2.27C38.94 1.1 41.69.6 44.45 0l.93 2.66c-2.79.28-5.78.45-8.96.51l-.38 3.36h2.43V3.54h2.77v2.99h5.18l-.14 1.26h-5.04zm1.73.53c2.04 2.06 3.42 3.51 4.16 4.35l-2.24 1.63c-.91-1.38-2.04-3.05-3.41-5.02l1.49-.96zM56.66 8.3c-.3 1.9-1.35 3.18-3.15 3.86 1.6.54 4.75.55 9.46.03l-.32 2.83c-3.55.19-6.24.07-8.06-.35-1.75-.41-3.08-1.19-4-2.35a21.4 21.4 0 01-1.2 2.59L48 14.19a26.14 26.14 0 001.58-7.17h-1.36l-.08-1.23h3.33c.42 0 .66.16.72.48 1.04-.49 1.93-1.13 2.66-1.92h-2.32l-.08-1.09h4.02v-.75c-1.37.04-2.39.06-3.09.06l-.26-1.33c2.61-.29 5.22-.7 7.82-1.23l.7 2.14c-1.1.11-2.05.18-2.85.22v.88h4.02l-.13 1.09h-2.8c.82.67 1.91 1.14 3.26 1.39l-.85 2a6.699 6.699 0 01-3.5-2.37v1.41h-2.34V5.52c-.81.7-1.71 1.26-2.69 1.68h5.62c.25 0 .43.06.56.18.13.11.16.25.1.42l-.35 1.06h1.57c.62 0 .93.25.93.75V11c0 .53-.22.89-.67 1.07-.3.12-.84.18-1.62.18-.01.01-.91.01-2.69 0l-.1-.91h2.72V9.88h-2.58l.4-1.58h-.99zm-6.43-3.31l-1.55-3.17 1.39-.77c1.24 1.44 1.98 2.33 2.24 2.67l-2.08 1.26zm1.9 1.79c-.26 1.33-.55 2.55-.9 3.65.47.66 1.01 1.15 1.62 1.46l-.37-.56c1.01-.52 1.57-1.53 1.68-3.02h-.98l-.06-.83-.43.14-.56-.83zM6.69 9.5c-1.9 1.58-3.72 3-5.46 4.27L0 11.43l1.04-.59V1.22h2.43v8.17L5.9 7.87l.78 1.63zm.34-3.34C6.34 5 5.41 3.5 4.26 1.68L5.64.59C7.26 2.3 8.41 3.56 9.1 4.37L7.04 6.16zm6.19 9.02c-.95-1.23-1.98-2.53-3.1-3.92-1.13 1.51-2.58 2.89-4.35 4.11l-1.01-1.14c2.22-1.76 3.79-3.79 4.7-6.08.73-1.8 1.23-4.4 1.52-7.79h2.86c-.41 3.79-1.28 6.86-2.62 9.23 1.83 1.58 3.22 2.81 4.14 3.7l-2.14 1.89z" />
  <path opacity=".8" d="M63.31 18.95c0 .48-.01.81-.03 1.01s-.09.38-.21.54-.28.29-.48.38-.44.13-.7.13-.48-.04-.68-.12-.36-.21-.49-.37-.2-.35-.22-.54-.04-.54-.04-1.03v-.81c0-.48.01-.81.03-1.01s.09-.38.21-.54.28-.29.48-.38.44-.13.7-.13.48.04.68.12.37.21.49.37.2.35.22.54.04.54.04 1.03v.81zm-1.23-1.56c0-.22-.01-.36-.04-.42s-.07-.09-.15-.09c-.06 0-.11.02-.15.07s-.05.2-.05.44v2.21c0 .28.01.45.03.51s.08.1.16.1.14-.04.16-.11.04-.25.04-.53v-2.18zM60.21 16.17v.95h-.73v3.79h-1.23v-3.79h-.73v-.95h2.7zM57.44 16.17v.95h-.73v3.79h-1.23v-3.79h-.73v-.95h2.7zM54.5 18.95c0 .48-.01.81-.03 1.01s-.09.38-.21.54-.28.29-.48.38-.44.13-.7.13-.48-.04-.68-.12-.36-.21-.49-.37-.2-.35-.22-.54-.04-.54-.04-1.03v-.81c0-.48.01-.81.03-1.01s.09-.38.21-.54.28-.29.48-.38.44-.13.7-.13.48.04.68.12.37.21.49.37.2.35.22.54.04.54.04 1.03v.81zm-1.23-1.56c0-.22-.01-.36-.04-.42s-.07-.09-.15-.09c-.06 0-.11.02-.15.07s-.05.2-.05.44v2.21c0 .28.01.45.03.51s.08.1.16.1.14-.04.16-.11.04-.25.04-.53v-2.18zM50.72 16.17v3.79h.75v.95h-1.98v-4.74h1.23zM45.2 16.17h.87c.58 0 .98.02 1.18.07s.37.16.5.34.2.48.2.88c0 .37-.05.62-.14.74s-.27.2-.54.23c.24.06.41.14.49.24s.14.19.16.28.03.32.03.7v1.25H46.8v-1.58c0-.25-.02-.41-.06-.47s-.14-.09-.31-.09v2.14H45.2v-4.74zm1.23.81v1.05c.14 0 .24-.02.29-.06s.08-.16.08-.37v-.26c0-.15-.03-.25-.08-.3s-.15-.07-.29-.07zM42.7 16.17h2.06v.95h-.82v.9h.77v.9h-.77v1.04h.91v.95h-2.14v-4.74zM42.21 16.17v4.74h-1.23v-1.99h-.37v1.99h-1.23v-4.74h1.23v1.7h.37v-1.7h1.23zM39.09 16.17v.95h-.73v3.79h-1.23v-3.79h-.73v-.95h2.7zM34.19 16.17h2.06v.95h-.82v.9h.77v.9h-.77v1.04h.91v.95H34.2v-4.74z" />
</svg>