<svg viewBox="0 0 1024 1024" xmlns="http://www.w3.org/2000/svg">
  <path opacity=".8" d="M928.256 289.792h-133.12c17.408-27.136 27.136-59.392 27.136-93.696 0-39.936-13.824-79.36-39.424-110.592-14.336-17.408-39.936-20.48-57.856-6.144-17.408 14.336-20.48 39.936-6.144 57.856 13.824 16.896 20.992 37.376 20.992 58.88 0 51.712-41.984 93.696-93.696 93.696H552.96v-94.208c0-51.712 41.984-93.696 93.696-93.696 22.528 0 40.96-18.432 40.96-40.96s-18.432-40.96-40.96-40.96c-54.272 0-102.4 24.576-134.656 62.976-32.256-38.4-80.896-62.976-134.656-62.976-96.768 0-175.616 78.848-175.616 175.616 0 34.304 10.24 66.56 27.136 93.696H95.744c-39.424 0-71.68 32.256-71.68 71.68v136.704c0 39.424 32.256 71.68 71.68 71.68h20.992c-.512 3.584-.512 6.656-.512 10.24V903.68c0 50.688 41.472 92.16 92.16 92.16h607.744c50.688 0 92.16-41.472 92.16-92.16V579.584c0-3.584 0-6.656-.512-10.24h20.992c39.424 0 71.68-32.256 71.68-71.68V361.472c-.512-39.424-32.768-71.68-72.192-71.68zm-645.12-94.208c0-51.712 41.984-93.696 93.696-93.696s94.208 41.984 94.208 93.696v93.696h-93.696c-52.224.512-94.208-41.984-94.208-93.696zm542.72 384V903.68c0 5.632-4.608 10.24-10.24 10.24H208.384c-5.632 0-10.24-4.608-10.24-10.24V579.584c0-5.632 4.608-10.24 10.24-10.24h607.744c5.12 0 9.728 4.608 9.728 10.24zm92.16-92.16H105.984V371.712h812.032v115.712z" />
</svg>