<svg viewBox="0 0 1024 1024" xmlns="http://www.w3.org/2000/svg">
  <path opacity=".8" d="M692.352 151.637L437.696 298.645h-128l369.152-213.12a42.667 42.667 0 0158.283 15.638l114.005 197.482 87.53.022a42.667 42.667 0 0142.667 42.666V896a42.667 42.667 0 01-42.666 42.667H85.333A42.667 42.667 0 0142.667 896V341.333a42.667 42.667 0 0142.666-42.666h691.904l-84.885-147.03zm224.981 211.03H106.667v128h192a128 128 0 110 256h-192v128h810.666v-512zm-618.666 192h-192v128h192a64 64 0 003.754-127.894l-3.754-.106zm522.666 0a32 32 0 0132 32v64a32 32 0 01-64 0v-64a32 32 0 0132-32z" />
</svg>